<svg xmlns="http://www.w3.org/2000/svg" xml:space="preserve" width="2000" height="1500" data-id="lg_Hq8DqzurptYl45HMFq" data-version="1" viewBox="0 0 2000 1500"><path fill="#ebeddf" stroke="transparent" d="M0 0h2000v1500H0z"/><g data-padding="20"><g transform="translate(-1554.472 -1165.117)scale(2.48812)"><rect width="295.992" height="81.36" x="478.171" y="377.976" fill="none" rx="0" ry="0" transform="translate(400.51 482.22)"/><path fill="#97b002" d="M904.457 924.866q-7.34 0-13-2.22-5.66-2.21-8.86-6.92t-3.2-12.17v-5.34l19.51-2.67v5.41q0 3.41 1.42 5.05 1.43 1.63 3.26 1.63 1.89 0 3.44-1.84 1.55-1.85 1.55-5.05v-33.4h22.39v27.14q0 8.65-2.02 14.49-2.02 5.83-5.64 9.33t-8.44 5.03-10.41 1.53m32.9-21.24q0-5.76 1.95-10.44 1.95-4.67 5.33-8.05 3.37-3.37 7.66-5.18t8.97-1.81q3.76 0 7.36 1.84 3.61 1.85 5.75 5.19l5.03-5.38h11.53v43.7h-11.53l-5.03-7.28q-2.71 4.01-7.28 6.29-4.57 2.29-9.42 2.29-5.34 0-9.98-2.3-4.64-2.31-7.49-7t-2.85-11.87m20.95 1.73q0 1.72.81 3.27.81 1.54 2.64 1.54 1.76 0 4.5-1.07t5.73-3.6v-12.45q-1.23-.74-2.78-.74-2 0-3.94 1.22-1.93 1.21-3.49 3.16-1.57 1.95-2.52 4.24-.95 2.28-.95 4.43m69.47 18.14v-22.54q0-4.71-1.61-6.99-1.62-2.29-3.13-2.29-1.59 0-2.2 1.34-.62 1.33-.62 3.2v27.28h-20.88v-43.7h11.53l5.03 6.82q1.79-2.67 4.55-4.55t6.01-2.9q3.26-1.02 6.49-1.02 4.18 0 7.63 1.98 3.44 1.99 5.34 5.65 2.85-3.63 6.72-5.63t7.98-2q4.04 0 7.38 1.84 3.34 1.85 5.36 5.33t2.02 8.37v29.81h-20.39v-22.54q0-4.71-1.47-6.99-1.48-2.29-2.99-2.29-1.44 0-2.13 1.18-.68 1.18-.68 2.83v27.81Zm76.89 1.3q-4.25 0-8.3-1.34-4.04-1.33-7.31-3.99-3.27-2.65-5.2-6.55-1.94-3.91-1.94-9.07 0-6.44 2.31-11.27 2.3-4.84 6.24-8.05 3.93-3.22 8.93-4.84 4.99-1.61 10.37-1.61 6.82 0 11.09 2.07t6.27 5.34q2.01 3.27 2.01 6.89 0 3.91-2.5 7.56-2.49 3.66-7.33 6.02-4.83 2.35-11.9 2.35-.67 0-1.77-.02-1.11-.01-1.92-.05 0 2.22 1.05 3.2 1.06.98 2.66 1.23t3.22.25q1.44 0 4.06-.48 2.62-.47 5.67-1.74 3.06-1.26 5.81-3.62l2.17 10.93q-4.14 3.59-10.49 5.19t-13.2 1.6m-.95-24.58 7.7-1.72.67-5.38q0-.21.03-.4.04-.19.04-.41 0-3.09-2.89-3.09-2.49.21-3.48 1.71-.98 1.49-1.26 3.9t-.81 5.39m32.04 21.41v-13.04q.67.04 2.53.7 1.86.67 4.18 1.32t4.33.65q1.02 0 1.65-.37.63-.36.63-1.35 0-1.3-1.35-2.18-1.36-.88-3.36-1.84-2-.97-4.02-2.48-2.03-1.51-3.38-4.06t-1.35-6.6q0-3.93 1.67-6.66 1.67-2.72 4.5-4.39t6.36-2.43q3.53-.75 7.26-.75 3.2 0 6.05.31 2.84.32 4.83.69t2.51.51v13.25l-1.24-.28q-1.25-.28-3.11-.63-1.87-.35-3.77-.63-1.9-.29-3.23-.29-1.02 0-1.57.46-.54.46-.54 1.06 0 .56.6 1.09.59.52 2.42 1.26 2.78 1.13 5.17 2.27t4.2 2.72q1.81 1.59 2.81 4.05 1.01 2.46 1.01 6.25 0 7.25-5.14 10.9-5.13 3.66-13.64 3.66-6.75 0-10.44-.79t-5.13-1.58Z"/><rect width="560" height="32.77" x="346.167" y="402.271" fill="none" rx="0" ry="0" transform="translate(400.5 552.75)"/><path fill="#0b0b0b" d="M758.277 970.366q0-2.3 1-4.09 1-1.8 2.74-2.85 1.74-1.04 3.95-1.04 2.23 0 3.96 1.04 1.72 1.05 2.72 2.85 1 1.79 1 4.09 0 2.29-1 4.08-1 1.8-2.72 2.85-1.73 1.04-3.96 1.04-2.21 0-3.95-1.04-1.74-1.05-2.74-2.85-1-1.79-1-4.08m-2.61 0q0 2.2.77 4.11.77 1.92 2.16 3.32 1.39 1.41 3.28 2.21 1.88.8 4.09.8 2.23 0 4.1-.8t3.26-2.21q1.4-1.4 2.16-3.32.77-1.91.77-4.11 0-2.24-.77-4.14-.76-1.9-2.16-3.3-1.39-1.41-3.26-2.21-1.87-.79-4.1-.79-2.21 0-4.09.79-1.89.8-3.28 2.21-1.39 1.4-2.16 3.3t-.77 4.14m58.18-10.14h-2.47v15.1l-15.37-16.12v21.32h2.47v-15.11l15.37 16.12Zm22.27 17.97v2.32h10.24v-2.32Zm0-17.98v2.32h10.24v-2.32Zm0 8.12v2.32h9.66v-2.32Zm1.1-8.12h-2.46v20.3h2.46Zm56.67 8.2v1.37h3.27q1.83 0 3.18-.53 1.35-.52 2.1-1.53.76-1.02.76-2.44 0-1.74-.76-2.86-.75-1.11-2.1-1.66t-3.18-.55h-5.22v20.3h5.51q1.98 0 3.53-.66 1.55-.65 2.46-1.97.92-1.32.92-3.32 0-1.39-.53-2.41-.52-1.01-1.46-1.66-.94-.66-2.19-.98-1.25-.31-2.73-.31h-3.56v1.36h3.56q.99 0 1.8.24.81.25 1.41.74.59.5.91 1.22.32.73.32 1.66 0 1.24-.57 2.11-.56.87-1.56 1.34-1 .46-2.31.46h-3.04v-15.95h2.75q1.54 0 2.56.8 1.01.8 1.01 2.25 0 .95-.46 1.62-.47.67-1.28 1.01-.81.35-1.83.35Zm44.31-8.2h-2.76l-5.25 9.39-5.22-9.39h-2.75l6.76 11.57v8.73h2.46v-8.76Zm16.7 0v2.32h5.22v17.98h2.47v-17.98h5.22v-2.32Zm33.15 17.98v2.32h10.24v-2.32Zm0-17.98v2.32h10.24v-2.32Zm0 8.12v2.32h9.66v-2.32Zm1.1-8.12h-2.46v20.3h2.46Zm57.54 11.89-.87 2.32h10.73l-.87-2.32Zm1.01.75 3.42-8.06 3.48 8.18.24.58 2.95 6.96h2.76l-9.43-21.32-9.42 21.32h2.75l3.02-7.14Zm29.55-12.64v2.32h5.22v17.98h2.47v-17.98h5.22v-2.32Zm59.57 11.89-.87 2.32h10.73l-.87-2.32Zm1.01.75 3.43-8.06 3.48 8.18.23.58 2.96 6.96h2.75l-9.42-21.32-9.43 21.32h2.76l3.01-7.14Zm54.52-12.64v2.32h5.22v17.98h2.47v-17.98h5.22v-2.32Zm34.25 0h-2.46v20.3h2.46Zm22.22 20.3 1.51-13.72 6.61 11.83 6.61-11.83 1.51 13.72h2.46l-2.46-21.32-8.12 14.7-8.12-14.7-2.47 21.32Zm39.81-2.32v2.32h10.24v-2.32Zm0-17.98v2.32h10.24v-2.32Zm0 8.12v2.32h9.66v-2.32Zm1.11-8.12h-2.47v20.3h2.47Z"/><path fill="#2f2f2d" d="M1107.032 704.257q-1.956-28.733-10.374-56.778c-1.397-4.507-.72-9.39-1.716-13.99a367.08 287.96 0 0 0-6.105-23.85c-2.673-8.109-15.282-11.207-24.1-6.387q-1.117.626-2.553 1.565a19.152 15.024 0 0 0-16.04-8.42 18.753 14.711 0 0 0-17.596 5.666 22.344 17.528 0 0 0-36.39-2.38l-1.196-2.41a243.39 190.93 0 0 0-17.436-30.58 23.142 18.154 0 0 0-14.284-8.67 27.93 21.91 0 0 0-10.015-.062 23.94 18.78 0 0 0-12.29 7.074c-1.316 1.408-2.992 7.825-1.835 11.08.639 1.784 9.975 18.498 14.883 27.95a494.76 388.12 0 0 1 21.626 50.425c.638 1.94.32 2.91-2.115 3.975a21.945 17.215 0 0 0-9.775 19.97 21.147 16.589 0 0 0 21.705 12.363c2.554-.094 3.75.563 4.15 2.285.758 3.13 1.796 6.322 1.915 9.515 1.078 31.237-4.19 61.724-18.154 91.083a315.21 247.27 0 0 1-22.823 37.404c-3.032 4.07-2.474 5.79 2.514 8.138h1.955c1.676-1.252 3.83-2.285 4.947-3.819a295.26 231.62 0 0 0 41.975-107.672c.918-12.958 2.753-26.042-2.194-39.03l8.379-1.785c1.675-.376 2.912-.25 4.389.782 6.144 4.32 15.24 5.321 21.785 1.91 3.67-1.878 6.544-4.82 9.895-7.387a17.556 13.772 0 0 0 16.559 4.07c6.783-.94 10.773-4.665 13.805-9.266 8.1 3.568 15.162 2.254 21.945-3.193 1.197 10.016 2.554 19.187 3.352 28.39a355.11 278.57 0 0 1-5.147 70.424c-4.908 20.44-13.886 39.814-24.62 58.75-2.313 4.1-1.794 5.478 2.754 7.888h2.634c1.596-1.534 3.67-2.88 4.668-4.632a335.16 262.92 0 0 0 27.052-67.733 383.04 300.48 0 0 0 3.87-62.632m-65.276-99.19c4.23-.75 9.337.752 9.975 3.256 2.394 9.452 4.509 18.905 6.863 28.921a19.551 15.337 0 0 0-16.28 2.41c-1.236-5.79-2.473-11.205-3.55-16.65q-1.237-6.199-2.235-12.396c-.478-2.91 1.596-4.914 5.227-5.572m-37.147-2.41c5.906-2.19 12.888.25 14.125 5.26 2.873 11.55 5.506 23.161 8.3 34.71.398 1.503 0 2.316-1.996 2.85-5.107 1.344-10.174 2.847-15.6 4.381-3.193-13.929-6.265-27.45-9.218-41.003-.638-2.817 1.078-4.977 4.39-6.198m-57.257-24.226a19.95 15.65 0 0 1-1.477-7.418c.08-2.817 3.512-4.977 7.182-4.914 4.47.062 8.14 1.252 10.574 4.507a235.41 184.67 0 0 1 22.783 44.008c4.23 11.831 7.66 23.82 11.41 35.744q.24.783.4 2.004c-4.947.94-9.775 1.878-14.882 2.91-1.676-4.663-3.152-9.17-4.828-13.646a510.72 400.64 0 0 0-31.122-63.195m107.57 99.377c-3.112.69-5.985-.469-7.58-3.13l12.608-5.227c.837 4.382-1.038 7.481-5.028 8.357m-.24-15.963c-22.543 10.142-46.962 16.09-72.218 20.252-6.943 1.126-12.65-3.068-12.57-8.92 0-4.352 3.512-7.576 9.378-8.483a287.28 225.36 0 0 0 59.45-14.336 163.59 128.33 0 0 0 10.335-3.85c2.793-1.158 5.426-1.752 8.18-.062 2.912 1.847 4.628 4.225 4.189 7.136a13.167 10.329 0 0 1-6.743 8.232m30.563-2.41c-.2 2.285-.24 4.601-.678 6.886-.52 2.88-4.15 4.726-7.062 3.756-1.995-.689-2.793-1.878-2.793-3.662.16-4.883.08-9.766.08-12.896-.28-14.24-1.597-26.636-5.387-38.812-.758-2.504.479-4.382 3.072-4.914 3.072-.626 5.267.501 6.225 3.224a183.54 143.98 0 0 1 6.543 46.418"/></g><path fill="transparent" stroke="transparent" stroke-width="2.58" d="M277.523 187.5h1444.954v1125H277.523z"/></g></svg>